# xmcd
#
# Track frame offsets:
#	150
#	15108
#	67122
#	112173
#
# Disc length: 1705 seconds
#
# Revision: 1
# Processed by: cddbd v1.5.2PL0 Copyright (c) Steve Scherf et al.
# Submitted via: audiograbber 1.83.01
#
DISCID=2d06a704
DTITLE=Grateful Dead - 69-05-24 Seminole Indian Village, Hollywood FL
DYEAR=1900
DGENRE=
TTITLE0=Yellow Dog Story
TTITLE1=Alligator > Drums
TTITLE2=St Stephen > Feedback
TTITLE3=We Bid You Goodnight
EXTD=
EXTT0=
EXTT1=
EXTT2=
EXTT3=
PLAYORDER=
